<svg width="100" height="115.113" viewBox="0 0 100 115.113" fill="none" xmlns="http://www.w3.org/2000/svg">
  <path d="m50 0 49.845 28.778v57.556L50 115.113 0.155 86.334V28.778z" fill="none"/>
  <path d="m4.282 88.483 45.783 26.501V60.805c0 -2.113 1.122 -4.068 2.951 -5.124l41.861 -24.23c2.188 -1.265 2.188 -4.435 0 -5.706L54.018 2.108a7.873 7.873 0 0 0 -7.901 0L3.279 26.889C1.45 27.945 0.328 29.9 0.328 32.019v49.593c0 2.834 1.507 5.454 3.953 6.871" fill="#9DD1EC"/>
  <path d="m94.668 54.4 -10.613 -6.154 -24.837 14.379v17.989l35.45 -20.527c2.183 -1.262 2.183 -4.425 0 -5.687m-0.006 28.764 -10.714 -6.205 -24.73 14.316v18.046l35.437 -20.47c2.183 -1.262 2.189 -4.425 0 -5.693z" fill="#9DD1EC"/></svg>